<svg width="176" height="16" viewBox="0 0 176 16" fill="none" xmlns="http://www.w3.org/2000/svg">
<path d="M175.707 8.70712C176.098 8.3166 176.098 7.68343 175.707 7.29291L169.343 0.928947C168.953 0.538423 168.319 0.538423 167.929 0.928947C167.538 1.31947 167.538 1.95264 167.929 2.34316L173.586 8.00002L167.929 13.6569C167.538 14.0474 167.538 14.6806 167.929 15.0711C168.319 15.4616 168.953 15.4616 169.343 15.0711L175.707 8.70712ZM0 8L-8.74228e-08 9L1.98864 9L1.98864 8L1.98864 7L8.74228e-08 7L0 8ZM5.96591 8L5.96591 9L9.94318 9L9.94318 8L9.94318 7L5.96591 7L5.96591 8ZM13.9205 8L13.9205 9L17.8977 9L17.8977 8L17.8977 7L13.9205 7L13.9205 8ZM21.875 8L21.875 9L25.8523 9L25.8523 8L25.8523 7L21.875 7L21.875 8ZM29.8295 8L29.8295 9L33.8068 9L33.8068 8L33.8068 7L29.8295 7L29.8295 8ZM37.7841 8L37.7841 9L41.7614 9L41.7614 8L41.7614 7L37.7841 7L37.7841 8ZM45.7386 8L45.7386 9L49.7159 9L49.7159 8L49.7159 7L45.7386 7L45.7386 8ZM53.6932 8L53.6932 9L57.6704 9.00001L57.6704 8.00001L57.6704 7.00001L53.6932 7L53.6932 8ZM61.6477 8.00001L61.6477 9.00001L65.625 9.00001L65.625 8.00001L65.625 7.00001L61.6477 7.00001L61.6477 8.00001ZM69.6023 8.00001L69.6023 9.00001L73.5795 9.00001L73.5795 8.00001L73.5795 7.00001L69.6023 7.00001L69.6023 8.00001ZM77.5568 8.00001L77.5568 9.00001L81.5341 9.00001L81.5341 8.00001L81.5341 7.00001L77.5568 7.00001L77.5568 8.00001ZM85.5114 8.00001L85.5114 9.00001L89.4886 9.00001L89.4886 8.00001L89.4886 7.00001L85.5114 7.00001L85.5114 8.00001ZM93.4659 8.00001L93.4659 9.00001L97.4432 9.00001L97.4432 8.00001L97.4432 7.00001L93.4659 7.00001L93.4659 8.00001ZM101.42 8.00001L101.42 9.00001L105.398 9.00001L105.398 8.00001L105.398 7.00001L101.42 7.00001L101.42 8.00001ZM109.375 8.00001L109.375 9.00001L113.352 9.00001L113.352 8.00001L113.352 7.00001L109.375 7.00001L109.375 8.00001ZM117.33 8.00001L117.33 9.00001L121.307 9.00001L121.307 8.00001L121.307 7.00001L117.33 7.00001L117.33 8.00001ZM125.284 8.00001L125.284 9.00001L129.261 9.00001L129.261 8.00001L129.261 7.00001L125.284 7.00001L125.284 8.00001ZM133.239 8.00001L133.239 9.00001L137.216 9.00001L137.216 8.00001L137.216 7.00001L133.239 7.00001L133.239 8.00001ZM141.193 8.00001L141.193 9.00001L145.17 9.00001L145.17 8.00001L145.17 7.00001L141.193 7.00001L141.193 8.00001ZM149.148 8.00001L149.148 9.00001L153.125 9.00001L153.125 8.00001L153.125 7.00001L149.148 7.00001L149.148 8.00001ZM157.102 8.00001L157.102 9.00001L161.08 9.00001L161.08 8.00001L161.08 7.00001L157.102 7.00001L157.102 8.00001ZM165.057 8.00001L165.057 9.00001L169.034 9.00001L169.034 8.00001L169.034 7.00001L165.057 7.00001L165.057 8.00001ZM173.011 8.00002L173.011 9.00002L175 9.00002L175 8.00002L175 7.00002L173.011 7.00002L173.011 8.00002ZM175.707 8.70712C176.098 8.3166 176.098 7.68343 175.707 7.29291L169.343 0.928947C168.953 0.538423 168.319 0.538423 167.929 0.928947C167.538 1.31947 167.538 1.95264 167.929 2.34316L173.586 8.00002L167.929 13.6569C167.538 14.0474 167.538 14.6806 167.929 15.0711C168.319 15.4616 168.953 15.4616 169.343 15.0711L175.707 8.70712ZM0 8L-8.74228e-08 9L1.98864 9L1.98864 8L1.98864 7L8.74228e-08 7L0 8ZM5.96591 8L5.96591 9L9.94318 9L9.94318 8L9.94318 7L5.96591 7L5.96591 8ZM13.9205 8L13.9205 9L17.8977 9L17.8977 8L17.8977 7L13.9205 7L13.9205 8ZM21.875 8L21.875 9L25.8523 9L25.8523 8L25.8523 7L21.875 7L21.875 8ZM29.8295 8L29.8295 9L33.8068 9L33.8068 8L33.8068 7L29.8295 7L29.8295 8ZM37.7841 8L37.7841 9L41.7614 9L41.7614 8L41.7614 7L37.7841 7L37.7841 8ZM45.7386 8L45.7386 9L49.7159 9L49.7159 8L49.7159 7L45.7386 7L45.7386 8ZM53.6932 8L53.6932 9L57.6704 9.00001L57.6704 8.00001L57.6704 7.00001L53.6932 7L53.6932 8ZM61.6477 8.00001L61.6477 9.00001L65.625 9.00001L65.625 8.00001L65.625 7.00001L61.6477 7.00001L61.6477 8.00001ZM69.6023 8.00001L69.6023 9.00001L73.5795 9.00001L73.5795 8.00001L73.5795 7.00001L69.6023 7.00001L69.6023 8.00001ZM77.5568 8.00001L77.5568 9.00001L81.5341 9.00001L81.5341 8.00001L81.5341 7.00001L77.5568 7.00001L77.5568 8.00001ZM85.5114 8.00001L85.5114 9.00001L89.4886 9.00001L89.4886 8.00001L89.4886 7.00001L85.5114 7.00001L85.5114 8.00001ZM93.4659 8.00001L93.4659 9.00001L97.4432 9.00001L97.4432 8.00001L97.4432 7.00001L93.4659 7.00001L93.4659 8.00001ZM101.42 8.00001L101.42 9.00001L105.398 9.00001L105.398 8.00001L105.398 7.00001L101.42 7.00001L101.42 8.00001ZM109.375 8.00001L109.375 9.00001L113.352 9.00001L113.352 8.00001L113.352 7.00001L109.375 7.00001L109.375 8.00001ZM117.33 8.00001L117.33 9.00001L121.307 9.00001L121.307 8.00001L121.307 7.00001L117.33 7.00001L117.33 8.00001ZM125.284 8.00001L125.284 9.00001L129.261 9.00001L129.261 8.00001L129.261 7.00001L125.284 7.00001L125.284 8.00001ZM133.239 8.00001L133.239 9.00001L137.216 9.00001L137.216 8.00001L137.216 7.00001L133.239 7.00001L133.239 8.00001ZM141.193 8.00001L141.193 9.00001L145.17 9.00001L145.17 8.00001L145.17 7.00001L141.193 7.00001L141.193 8.00001ZM149.148 8.00001L149.148 9.00001L153.125 9.00001L153.125 8.00001L153.125 7.00001L149.148 7.00001L149.148 8.00001ZM157.102 8.00001L157.102 9.00001L161.08 9.00001L161.08 8.00001L161.08 7.00001L157.102 7.00001L157.102 8.00001ZM165.057 8.00001L165.057 9.00001L169.034 9.00001L169.034 8.00001L169.034 7.00001L165.057 7.00001L165.057 8.00001ZM173.011 8.00002L173.011 9.00002L175 9.00002L175 8.00002L175 7.00002L173.011 7.00002L173.011 8.00002Z" fill="url(#paint0_linear_3194_29537)"/>
<defs>
<linearGradient id="paint0_linear_3194_29537" x1="-4.37114e-08" y1="8.5" x2="175" y2="8.50002" gradientUnits="userSpaceOnUse">
<stop stop-color="#999999"/>
<stop offset="1" stop-color="#94F201"/>
</linearGradient>
</defs>
</svg>
