<svg width="15" height="14" viewBox="0 0 15 14" fill="none" xmlns="http://www.w3.org/2000/svg">
<path d="M7.35333 1.75448C9.14299 1.75448 9.35496 1.76129 10.0617 1.7935C10.7152 1.82334 11.0702 1.93252 11.3064 2.02432C11.6192 2.14591 11.8425 2.29117 12.077 2.52571C12.3116 2.76025 12.4568 2.98353 12.5784 3.29635C12.6702 3.53257 12.7794 3.88749 12.8092 4.54095C12.8414 5.24776 12.8482 5.45973 12.8482 7.24939C12.8482 9.0391 12.8414 9.25107 12.8092 9.95783C12.7794 10.6113 12.6702 10.9662 12.5784 11.2024C12.4568 11.5153 12.3116 11.7386 12.077 11.9731C11.8425 12.2077 11.6192 12.3529 11.3064 12.4745C11.0702 12.5663 10.7152 12.6755 10.0617 12.7053C9.35507 12.7375 9.1431 12.7443 7.35333 12.7443C5.56352 12.7443 5.35155 12.7375 4.64489 12.7053C3.99138 12.6754 3.63651 12.5663 3.4003 12.4745C3.08747 12.3529 2.86414 12.2077 2.6296 11.9731C2.39506 11.7385 2.2498 11.5153 2.12826 11.2024C2.03647 10.9663 1.92723 10.6113 1.89744 9.95783C1.86518 9.25107 1.85837 9.0391 1.85837 7.24939C1.85837 5.45973 1.86518 5.24776 1.89744 4.541C1.92729 3.88749 2.03647 3.53257 2.12826 3.29635C2.2498 2.98353 2.39506 2.76025 2.6296 2.52571C2.86419 2.29111 3.08747 2.14591 3.4003 2.02432C3.63646 1.93252 3.99138 1.82334 4.64489 1.7935C5.35165 1.76129 5.56362 1.75448 7.35333 1.75448ZM7.35333 0.546753C5.53299 0.546753 5.30474 0.55445 4.58986 0.587073C3.87639 0.619644 3.38914 0.732961 2.96284 0.898641C2.52204 1.06993 2.14826 1.29912 1.77564 1.67175C1.40301 2.04437 1.17387 2.41815 1.00258 2.8589C0.836851 3.28525 0.723587 3.7725 0.691016 4.48591C0.658393 5.20079 0.650696 5.42905 0.650696 7.24939C0.650696 9.06973 0.658393 9.29799 0.691016 10.0129C0.723587 10.7263 0.836851 11.2136 1.00258 11.6399C1.17382 12.0806 1.40301 12.4545 1.77564 12.8271C2.14826 13.1997 2.52204 13.4289 2.96284 13.6001C3.38919 13.7659 3.87639 13.8791 4.5898 13.9117C5.30474 13.9443 5.53299 13.952 7.35333 13.952C9.17368 13.952 9.40193 13.9443 10.1168 13.9117C10.8302 13.8791 11.3175 13.7659 11.7438 13.6001C12.1846 13.4289 12.5584 13.1997 12.931 12.8271C13.3036 12.4545 13.5328 12.0807 13.7041 11.6399C13.8698 11.2135 13.9831 10.7263 14.0157 10.0129C14.0483 9.29799 14.056 9.06973 14.056 7.24939C14.056 5.42905 14.0483 5.20079 14.0157 4.48591C13.9831 3.7725 13.8698 3.28525 13.7041 2.85895C13.5328 2.41815 13.3036 2.04437 12.931 1.67175C12.5584 1.29912 12.1846 1.06987 11.7438 0.898641C11.3175 0.732961 10.8302 0.619644 10.1168 0.587073C9.40193 0.55445 9.17368 0.546753 7.35333 0.546753ZM7.35333 3.80748C5.4524 3.80748 3.91142 5.34856 3.91142 7.24939C3.91142 9.15032 5.4524 10.6913 7.35333 10.6913C9.25421 10.6913 10.7952 9.15032 10.7952 7.24939C10.7952 5.34851 9.25421 3.80748 7.35333 3.80748ZM7.35333 9.48362C6.11942 9.48362 5.1191 8.4833 5.1191 7.24939C5.1191 6.01548 6.11942 5.01516 7.35333 5.01516C8.58725 5.01516 9.58756 6.01548 9.58756 7.24939C9.58756 8.4833 8.58725 9.48362 7.35333 9.48362ZM11.7355 3.67149C11.7355 4.11575 11.3754 4.47581 10.9312 4.47581C10.487 4.47581 10.1269 4.11575 10.1269 3.67149C10.1269 3.22728 10.487 2.86717 10.9312 2.86717C11.3754 2.86717 11.7355 3.22728 11.7355 3.67149Z" fill="white"/>
</svg>
