<svg width="15" height="12" viewBox="0 0 15 12" fill="none" xmlns="http://www.w3.org/2000/svg">
<path d="M1.02098 5.16083C4.89916 3.47156 7.48461 2.35778 8.77734 1.8197C12.4726 0.28318 13.2395 0.0163217 13.7404 0.00728092C13.8506 0.00551434 14.0958 0.0327403 14.2558 0.162117C14.3889 0.27123 14.4263 0.418792 14.445 0.522397C14.4616 0.625898 14.4845 0.86179 14.4657 1.04593C14.2662 3.14921 13.3996 8.25319 12.959 10.609C12.774 11.6058 12.4061 11.94 12.0507 11.9726C11.2776 12.0437 10.6915 11.4621 9.94329 10.9719C8.77318 10.2043 8.11227 9.72673 6.97542 8.9779C5.66191 8.11248 6.51403 7.63675 7.26223 6.85946C7.4576 6.65599 10.8619 3.5603 10.9263 3.27952C10.9347 3.2444 10.943 3.11346 10.864 3.04446C10.7871 2.97525 10.6728 2.99894 10.5897 3.01765C10.4712 3.04425 8.60276 4.28045 4.97814 6.72603C4.44816 7.09057 3.96807 7.26826 3.53577 7.25891C3.06191 7.24873 2.14744 6.99039 1.46783 6.76967C0.636493 6.49886 -0.0264973 6.35567 0.0316962 5.89573C0.0607929 5.65631 0.391249 5.41127 1.02098 5.16083Z" fill="white"/>
</svg>
