<svg width="17" height="13" viewBox="0 0 17 13" fill="none" xmlns="http://www.w3.org/2000/svg">
<path d="M13.7117 1.28374C12.6894 0.805917 11.608 0.466401 10.4959 0.27417C10.3574 0.524358 10.1955 0.860862 10.0839 1.12857C8.88488 0.948456 7.69688 0.948456 6.5199 1.12857C6.40836 0.860923 6.24286 0.524358 6.10306 0.27417C4.98989 0.466489 3.90751 0.80687 2.88478 1.28624C0.849637 4.35863 0.297924 7.35463 0.57375 10.3082C1.92359 11.3152 3.23173 11.927 4.51782 12.3273C4.83745 11.8882 5.11999 11.4233 5.36253 10.9374C4.90077 10.7618 4.45561 10.5454 4.03235 10.2907C4.14374 10.2082 4.2525 10.1223 4.35847 10.033C6.92323 11.2314 9.70999 11.2314 12.2442 10.033C12.3506 10.1217 12.4593 10.2076 12.5702 10.2907C12.1463 10.546 11.7003 10.7629 11.2376 10.9387C11.4815 11.4266 11.7636 11.8919 12.0823 12.3285C13.3696 11.9283 14.679 11.3165 16.0288 10.3082C16.3525 6.8843 15.476 3.9158 13.7117 1.28374ZM5.71197 8.49182C4.94203 8.49182 4.31062 7.77374 4.31062 6.89932C4.31062 6.02491 4.92858 5.30561 5.71197 5.30561C6.49543 5.30561 7.12678 6.02363 7.11333 6.89932C7.11454 7.77374 6.49543 8.49182 5.71197 8.49182ZM10.8906 8.49182C10.1207 8.49182 9.48933 7.77374 9.48933 6.89932C9.48933 6.02491 10.1072 5.30561 10.8906 5.30561C11.6741 5.30561 12.3054 6.02363 12.292 6.89932C12.292 7.77374 11.6741 8.49182 10.8906 8.49182Z" fill="white"/>
</svg>
